<?xml version="1.0" encoding="UTF-8"?>
<svg width="960" height="720" viewBox="0 0 960 720" fill="none" xmlns="http://www.w3.org/2000/svg">
  <title>FameFlow icons</title>
  <style>
    .bg { fill: #FAFAFC; }
    .card { fill: #FFFFFF; stroke: #E8E6F2; }
    .ink { color: #1E1E24; }
    .muted { fill: #6F6F7A; }
    .label { fill: #1E1E24; font: 600 13px Inter, Arial, sans-serif; letter-spacing: 0; }
    .caption { fill: #6F6F7A; font: 500 11px Inter, Arial, sans-serif; letter-spacing: 0; }
    .title { fill: #1E1E24; font: 800 28px Inter, Arial, sans-serif; letter-spacing: 0; }
    .subtitle { fill: #6F6F7A; font: 500 14px Inter, Arial, sans-serif; letter-spacing: 0; }
    .icon-box { fill: #F7F4FF; stroke: #DBD4FA; }
  </style>

  <defs>
    <symbol id="icon-logo-mark" viewBox="0 0 24 24">
      <rect x="3" y="3" width="18" height="18" rx="5" fill="currentColor"/>
      <path d="M8 15V8h9M8 11.5h7" stroke="#FFFFFF" stroke-width="2.2" stroke-linecap="round"/>
    </symbol>
    <symbol id="icon-sparkle" viewBox="0 0 24 24">
      <path d="M12 3 14.4 9.1 21 9.4l-5.1 4.1 1.7 6.5-5.6-3.6L6.4 20l1.7-6.5L3 9.4l6.6-.3L12 3Z" stroke="currentColor" stroke-width="1.8" stroke-linejoin="round"/>
    </symbol>
    <symbol id="icon-person" viewBox="0 0 24 24">
      <circle cx="12" cy="8" r="4" stroke="currentColor" stroke-width="1.8"/>
      <path d="M5 21c1.4-4 4-6 7-6s5.6 2 7 6" stroke="currentColor" stroke-width="1.8" stroke-linecap="round"/>
    </symbol>
    <symbol id="icon-users" viewBox="0 0 24 24">
      <circle cx="9" cy="8" r="3" stroke="currentColor" stroke-width="1.8"/>
      <circle cx="17" cy="10" r="2.5" stroke="currentColor" stroke-width="1.8"/>
      <path d="M3 20c1-4 3-6 6-6s5 2 6 6M14 18c.8-2.2 2-3.3 3.8-3.3 1.7 0 2.9 1.1 3.7 3.3" stroke="currentColor" stroke-width="1.8" stroke-linecap="round"/>
    </symbol>
    <symbol id="icon-image" viewBox="0 0 24 24">
      <rect x="4" y="5" width="16" height="14" rx="2" stroke="currentColor" stroke-width="1.8"/>
      <path d="m7 16 4-4 3 3 2-2 1 3" stroke="currentColor" stroke-width="1.8" stroke-linecap="round" stroke-linejoin="round"/>
    </symbol>
    <symbol id="icon-video" viewBox="0 0 24 24">
      <rect x="4" y="7" width="12" height="10" rx="2" stroke="currentColor" stroke-width="1.8"/>
      <circle cx="10" cy="12" r="2" stroke="currentColor" stroke-width="1.8"/>
      <path d="m16 10 4-2v8l-4-2" stroke="currentColor" stroke-width="1.8" stroke-linecap="round" stroke-linejoin="round"/>
    </symbol>
    <symbol id="icon-video-ad" viewBox="0 0 24 24">
      <rect x="4" y="7" width="12" height="10" rx="2" stroke="currentColor" stroke-width="1.8"/>
      <circle cx="10" cy="12" r="2" stroke="currentColor" stroke-width="1.8"/>
      <path d="m16 10 4-2v8l-4-2M8 7l1-2h4l1 2" stroke="currentColor" stroke-width="1.8" stroke-linecap="round" stroke-linejoin="round"/>
    </symbol>
    <symbol id="icon-audio" viewBox="0 0 24 24">
      <path d="M9 18V5l11-2v13" stroke="currentColor" stroke-width="1.8" stroke-linecap="round" stroke-linejoin="round"/>
      <circle cx="6" cy="18" r="3" stroke="currentColor" stroke-width="1.8"/>
      <circle cx="17" cy="16" r="3" stroke="currentColor" stroke-width="1.8"/>
    </symbol>
    <symbol id="icon-paperclip" viewBox="0 0 24 24">
      <path d="M21.4 11.6 12.3 20.7a5 5 0 0 1-7.1-7.1l9.2-9.2a3.2 3.2 0 1 1 4.5 4.5l-9.3 9.3a1.5 1.5 0 0 1-2.1-2.1l8.6-8.6" stroke="currentColor" stroke-width="1.8" stroke-linecap="round" stroke-linejoin="round"/>
    </symbol>
    <symbol id="icon-mic" viewBox="0 0 24 24">
      <path d="M12 3a3 3 0 0 0-3 3v6a3 3 0 0 0 6 0V6a3 3 0 0 0-3-3Z" stroke="currentColor" stroke-width="1.8"/>
      <path d="M19 11a7 7 0 0 1-14 0M12 18v3" stroke="currentColor" stroke-width="1.8" stroke-linecap="round"/>
    </symbol>
    <symbol id="icon-undo" viewBox="0 0 24 24">
      <path d="M4 7v5h5" stroke="currentColor" stroke-width="1.8" stroke-linecap="round" stroke-linejoin="round"/>
      <path d="M4.5 12a7.5 7.5 0 1 0 2.2-5.3L4 9.4" stroke="currentColor" stroke-width="1.8" stroke-linecap="round" stroke-linejoin="round"/>
    </symbol>
    <symbol id="icon-chevron-right" viewBox="0 0 24 24">
      <path d="m9 6 6 6-6 6" stroke="currentColor" stroke-width="2" stroke-linecap="round" stroke-linejoin="round"/>
    </symbol>
    <symbol id="icon-chevron-down" viewBox="0 0 24 24">
      <path d="m6 9 6 6 6-6" stroke="currentColor" stroke-width="2" stroke-linecap="round" stroke-linejoin="round"/>
    </symbol>
    <symbol id="icon-check" viewBox="0 0 24 24">
      <path d="m5 12 4 4 10-10" stroke="currentColor" stroke-width="2.2" stroke-linecap="round" stroke-linejoin="round"/>
    </symbol>
    <symbol id="icon-plus" viewBox="0 0 24 24">
      <path d="M12 5v14M5 12h14" stroke="currentColor" stroke-width="2" stroke-linecap="round"/>
    </symbol>
    <symbol id="icon-menu" viewBox="0 0 24 24">
      <path d="M5 7h14M5 12h14M5 17h14" stroke="currentColor" stroke-width="2.4" stroke-linecap="round"/>
    </symbol>
    <symbol id="icon-grid" viewBox="0 0 24 24">
      <rect x="4" y="4" width="6" height="6" rx="1" stroke="currentColor" stroke-width="1.8"/>
      <rect x="14" y="4" width="6" height="6" rx="1" stroke="currentColor" stroke-width="1.8"/>
      <rect x="4" y="14" width="6" height="6" rx="1" stroke="currentColor" stroke-width="1.8"/>
      <rect x="14" y="14" width="6" height="6" rx="1" stroke="currentColor" stroke-width="1.8"/>
    </symbol>
    <symbol id="icon-robot" viewBox="0 0 24 24">
      <rect x="6" y="8" width="12" height="9" rx="4" stroke="currentColor" stroke-width="1.8"/>
      <path d="M12 8V5M9 5h6M4 12h2M18 12h2" stroke="currentColor" stroke-width="1.8" stroke-linecap="round"/>
      <circle cx="10" cy="12.5" r=".8" fill="currentColor"/>
      <circle cx="14" cy="12.5" r=".8" fill="currentColor"/>
    </symbol>
    <symbol id="icon-sun" viewBox="0 0 24 24">
      <circle cx="12" cy="12" r="5" stroke="currentColor" stroke-width="2"/>
      <path d="M12 1v2M12 21v2M1 12h2M21 12h2M4.2 4.2l1.4 1.4M18.4 18.4l1.4 1.4M19.8 4.2l-1.4 1.4M5.6 18.4l-1.4 1.4" stroke="currentColor" stroke-width="2" stroke-linecap="round"/>
    </symbol>
    <symbol id="icon-search" viewBox="0 0 24 24">
      <circle cx="11" cy="11" r="6" stroke="currentColor" stroke-width="1.8"/>
      <path d="m16 16 4 4" stroke="currentColor" stroke-width="1.8" stroke-linecap="round"/>
    </symbol>
    <symbol id="icon-bell" viewBox="0 0 24 24">
      <path d="M18 9a6 6 0 0 0-12 0c0 7-3 7-3 9h18c0-2-3-2-3-9" stroke="currentColor" stroke-width="1.8" stroke-linejoin="round"/>
      <path d="M10 21h4" stroke="currentColor" stroke-width="1.8" stroke-linecap="round"/>
    </symbol>
    <symbol id="icon-compass" viewBox="0 0 24 24">
      <circle cx="12" cy="12" r="7" stroke="currentColor" stroke-width="1.8"/>
      <path d="m15 9-2.2 4.8L8 16l2.2-4.8L15 9Z" stroke="currentColor" stroke-width="1.8" stroke-linejoin="round"/>
    </symbol>
    <symbol id="icon-doc" viewBox="0 0 24 24">
      <rect x="4" y="5" width="16" height="14" rx="2" stroke="currentColor" stroke-width="1.8"/>
      <path d="M8 9h8M8 13h5" stroke="currentColor" stroke-width="1.8" stroke-linecap="round"/>
    </symbol>
    <symbol id="icon-settings" viewBox="0 0 24 24">
      <path d="M12 15.5a3.5 3.5 0 1 0 0-7 3.5 3.5 0 0 0 0 7Z" stroke="currentColor" stroke-width="1.8"/>
      <path d="M19.4 15a1.8 1.8 0 0 0 .4 2l.1.1-2 3.4-.2-.1a1.8 1.8 0 0 0-2 .4l-.1.1a1.8 1.8 0 0 0-.5 1.4V22H9v-.2a1.8 1.8 0 0 0-.5-1.4l-.1-.1a1.8 1.8 0 0 0-2-.4l-.2.1-2-3.4.1-.1a1.8 1.8 0 0 0 .4-2V15a1.8 1.8 0 0 0-1.2-1.4H3v-3.2h.5A1.8 1.8 0 0 0 4.7 9V8.9a1.8 1.8 0 0 0-.4-2l-.1-.1 2-3.4.2.1a1.8 1.8 0 0 0 2-.4l.1-.1A1.8 1.8 0 0 0 9 1.7V1h6v.7a1.8 1.8 0 0 0 .5 1.3l.1.1a1.8 1.8 0 0 0 2 .4l.2-.1 2 3.4-.1.1a1.8 1.8 0 0 0-.4 2V9a1.8 1.8 0 0 0 1.2 1.4h.5v3.2h-.5A1.8 1.8 0 0 0 19.4 15Z" stroke="currentColor" stroke-width="1.8" stroke-linejoin="round"/>
    </symbol>
    <symbol id="icon-arrow-right" viewBox="0 0 24 24">
      <path d="M5 12h14M13 6l6 6-6 6" stroke="currentColor" stroke-width="1.8" stroke-linecap="round" stroke-linejoin="round"/>
    </symbol>
    <symbol id="icon-bag" viewBox="0 0 24 24">
      <path d="M6 8h12l-1 12H7L6 8Z" stroke="currentColor" stroke-width="1.8" stroke-linejoin="round"/>
      <path d="M9 8a3 3 0 0 1 6 0" stroke="currentColor" stroke-width="1.8" stroke-linecap="round"/>
    </symbol>
    <symbol id="icon-hash" viewBox="0 0 24 24">
      <rect x="5" y="5" width="14" height="14" rx="3" stroke="currentColor" stroke-width="1.8"/>
      <path d="M8 10h8M8 14h5" stroke="currentColor" stroke-width="1.8" stroke-linecap="round"/>
      <circle cx="16" cy="16" r="1" fill="currentColor"/>
    </symbol>
    <symbol id="icon-guide" viewBox="0 0 24 24">
      <circle cx="12" cy="12" r="8" stroke="currentColor" stroke-width="1.8"/>
      <path d="M12 16v.01" stroke="currentColor" stroke-width="2.4" stroke-linecap="round"/>
      <path d="M9.8 9.2a2.3 2.3 0 1 1 3.7 1.8c-.9.6-1.4 1.2-1.4 2.2" stroke="currentColor" stroke-width="1.8" stroke-linecap="round"/>
    </symbol>
    <symbol id="icon-chat" viewBox="0 0 24 24">
      <path d="M5 6h14v10H9l-4 4V6Z" stroke="currentColor" stroke-width="1.8" stroke-linejoin="round"/>
    </symbol>
    <symbol id="icon-heart" viewBox="0 0 24 24">
      <path d="M20.5 8.7c0 5.3-8.5 10-8.5 10s-8.5-4.7-8.5-10A4.7 4.7 0 0 1 12 5.8a4.7 4.7 0 0 1 8.5 2.9Z" stroke="currentColor" stroke-width="1.8" stroke-linejoin="round"/>
    </symbol>
    <symbol id="icon-more-vertical" viewBox="0 0 24 24">
      <circle cx="12" cy="5" r="1.6" fill="currentColor"/>
      <circle cx="12" cy="12" r="1.6" fill="currentColor"/>
      <circle cx="12" cy="19" r="1.6" fill="currentColor"/>
    </symbol>
    <symbol id="icon-lightning" viewBox="0 0 24 24">
      <path d="M13 2 4 14h7l-1 8 10-13h-7l1-7Z" stroke="currentColor" stroke-width="1.8" stroke-linejoin="round"/>
    </symbol>
    <symbol id="icon-card" viewBox="0 0 24 24">
      <rect x="3" y="6" width="18" height="12" rx="3" stroke="currentColor" stroke-width="1.8"/>
      <path d="M3 10h18M7 15h4" stroke="currentColor" stroke-width="1.8" stroke-linecap="round"/>
    </symbol>
  </defs>

  <rect class="bg" width="960" height="720"/>
  <text class="title" x="40" y="52">FameFlow Icons</text>
  <text class="subtitle" x="40" y="78">Single SVG file with reusable symbols and preview grid. Use symbols as &lt;use href="#icon-name"/&gt;.</text>

  <g class="ink">
    <g transform="translate(40 118)">
      <rect class="card" x="0" y="0" width="880" height="548" rx="20"/>

      <g transform="translate(28 28)"><rect class="icon-box" x="0" y="0" width="64" height="64" rx="18"/><use href="#icon-logo-mark" x="18" y="18" width="28" height="28"/><text class="label" x="0" y="88">logo-mark</text></g>
      <g transform="translate(166 28)"><rect class="icon-box" x="0" y="0" width="64" height="64" rx="18"/><use href="#icon-sparkle" x="18" y="18" width="28" height="28"/><text class="label" x="0" y="88">sparkle</text></g>
      <g transform="translate(304 28)"><rect class="icon-box" x="0" y="0" width="64" height="64" rx="18"/><use href="#icon-person" x="18" y="18" width="28" height="28"/><text class="label" x="0" y="88">person</text></g>
      <g transform="translate(442 28)"><rect class="icon-box" x="0" y="0" width="64" height="64" rx="18"/><use href="#icon-users" x="18" y="18" width="28" height="28"/><text class="label" x="0" y="88">users</text></g>
      <g transform="translate(580 28)"><rect class="icon-box" x="0" y="0" width="64" height="64" rx="18"/><use href="#icon-image" x="18" y="18" width="28" height="28"/><text class="label" x="0" y="88">image</text></g>
      <g transform="translate(718 28)"><rect class="icon-box" x="0" y="0" width="64" height="64" rx="18"/><use href="#icon-video" x="18" y="18" width="28" height="28"/><text class="label" x="0" y="88">video</text></g>

      <g transform="translate(28 134)"><rect class="icon-box" x="0" y="0" width="64" height="64" rx="18"/><use href="#icon-video-ad" x="18" y="18" width="28" height="28"/><text class="label" x="0" y="88">video-ad</text></g>
      <g transform="translate(166 134)"><rect class="icon-box" x="0" y="0" width="64" height="64" rx="18"/><use href="#icon-audio" x="18" y="18" width="28" height="28"/><text class="label" x="0" y="88">audio</text></g>
      <g transform="translate(304 134)"><rect class="icon-box" x="0" y="0" width="64" height="64" rx="18"/><use href="#icon-paperclip" x="18" y="18" width="28" height="28"/><text class="label" x="0" y="88">paperclip</text></g>
      <g transform="translate(442 134)"><rect class="icon-box" x="0" y="0" width="64" height="64" rx="18"/><use href="#icon-mic" x="18" y="18" width="28" height="28"/><text class="label" x="0" y="88">mic</text></g>
      <g transform="translate(580 134)"><rect class="icon-box" x="0" y="0" width="64" height="64" rx="18"/><use href="#icon-undo" x="18" y="18" width="28" height="28"/><text class="label" x="0" y="88">undo</text></g>
      <g transform="translate(718 134)"><rect class="icon-box" x="0" y="0" width="64" height="64" rx="18"/><use href="#icon-chevron-right" x="18" y="18" width="28" height="28"/><text class="label" x="0" y="88">chevron-right</text></g>

      <g transform="translate(28 240)"><rect class="icon-box" x="0" y="0" width="64" height="64" rx="18"/><use href="#icon-chevron-down" x="18" y="18" width="28" height="28"/><text class="label" x="0" y="88">chevron-down</text></g>
      <g transform="translate(166 240)"><rect class="icon-box" x="0" y="0" width="64" height="64" rx="18"/><use href="#icon-check" x="18" y="18" width="28" height="28"/><text class="label" x="0" y="88">check</text></g>
      <g transform="translate(304 240)"><rect class="icon-box" x="0" y="0" width="64" height="64" rx="18"/><use href="#icon-plus" x="18" y="18" width="28" height="28"/><text class="label" x="0" y="88">plus</text></g>
      <g transform="translate(442 240)"><rect class="icon-box" x="0" y="0" width="64" height="64" rx="18"/><use href="#icon-menu" x="18" y="18" width="28" height="28"/><text class="label" x="0" y="88">menu</text></g>
      <g transform="translate(580 240)"><rect class="icon-box" x="0" y="0" width="64" height="64" rx="18"/><use href="#icon-grid" x="18" y="18" width="28" height="28"/><text class="label" x="0" y="88">grid</text></g>
      <g transform="translate(718 240)"><rect class="icon-box" x="0" y="0" width="64" height="64" rx="18"/><use href="#icon-robot" x="18" y="18" width="28" height="28"/><text class="label" x="0" y="88">robot</text></g>

      <g transform="translate(28 346)"><rect class="icon-box" x="0" y="0" width="64" height="64" rx="18"/><use href="#icon-sun" x="18" y="18" width="28" height="28"/><text class="label" x="0" y="88">sun</text></g>
      <g transform="translate(166 346)"><rect class="icon-box" x="0" y="0" width="64" height="64" rx="18"/><use href="#icon-search" x="18" y="18" width="28" height="28"/><text class="label" x="0" y="88">search</text></g>
      <g transform="translate(304 346)"><rect class="icon-box" x="0" y="0" width="64" height="64" rx="18"/><use href="#icon-bell" x="18" y="18" width="28" height="28"/><text class="label" x="0" y="88">bell</text></g>
      <g transform="translate(442 346)"><rect class="icon-box" x="0" y="0" width="64" height="64" rx="18"/><use href="#icon-compass" x="18" y="18" width="28" height="28"/><text class="label" x="0" y="88">compass</text></g>
      <g transform="translate(580 346)"><rect class="icon-box" x="0" y="0" width="64" height="64" rx="18"/><use href="#icon-doc" x="18" y="18" width="28" height="28"/><text class="label" x="0" y="88">doc</text></g>
      <g transform="translate(718 346)"><rect class="icon-box" x="0" y="0" width="64" height="64" rx="18"/><use href="#icon-settings" x="18" y="18" width="28" height="28"/><text class="label" x="0" y="88">settings</text></g>

      <g transform="translate(28 452)"><rect class="icon-box" x="0" y="0" width="64" height="64" rx="18"/><use href="#icon-arrow-right" x="18" y="18" width="28" height="28"/><text class="label" x="0" y="88">arrow-right</text></g>
      <g transform="translate(166 452)"><rect class="icon-box" x="0" y="0" width="64" height="64" rx="18"/><use href="#icon-bag" x="18" y="18" width="28" height="28"/><text class="label" x="0" y="88">bag</text></g>
      <g transform="translate(304 452)"><rect class="icon-box" x="0" y="0" width="64" height="64" rx="18"/><use href="#icon-hash" x="18" y="18" width="28" height="28"/><text class="label" x="0" y="88">hash</text></g>
      <g transform="translate(442 452)"><rect class="icon-box" x="0" y="0" width="64" height="64" rx="18"/><use href="#icon-guide" x="18" y="18" width="28" height="28"/><text class="label" x="0" y="88">guide</text></g>
      <g transform="translate(580 452)"><rect class="icon-box" x="0" y="0" width="64" height="64" rx="18"/><use href="#icon-chat" x="18" y="18" width="28" height="28"/><text class="label" x="0" y="88">chat</text></g>
      <g transform="translate(718 452)"><rect class="icon-box" x="0" y="0" width="64" height="64" rx="18"/><use href="#icon-heart" x="18" y="18" width="28" height="28"/><text class="label" x="0" y="88">heart</text></g>
    </g>
  </g>

  <text class="caption" x="40" y="696">Also included in defs: icon-more-vertical, icon-lightning, icon-card.</text>
</svg>
